<?xml version="1.0" encoding="UTF-8"?>
<svg version="1.1" xmlns="http://www.w3.org/2000/svg" width="512" height="512">
<path d="M0 0 C1.26794422 -0.00262956 1.26794422 -0.00262956 2.56150347 -0.00531223 C5.42499107 -0.01000461 8.2884286 -0.00749847 11.15191841 -0.00507832 C13.21319436 -0.00694466 15.27446995 -0.00924465 17.33574498 -0.01194364 C23.02429474 -0.01808987 28.71282988 -0.01792474 34.40138221 -0.01674926 C40.52690914 -0.01654597 46.65243128 -0.0220572 52.77795601 -0.02680683 C64.78803291 -0.03512939 76.79810356 -0.03787532 88.80818258 -0.03841921 C98.56592113 -0.03887821 108.32365808 -0.04093374 118.0813961 -0.04411983 C120.88705257 -0.04501734 123.69270905 -0.04590715 126.49836552 -0.04679471 C127.19580023 -0.04701576 127.89323494 -0.04723681 128.61180404 -0.04746456 C148.23757603 -0.0536214 167.86334748 -0.05756485 187.48912048 -0.05712128 C188.22951771 -0.0571057 188.96991493 -0.05709012 189.73274843 -0.05707407 C193.48564957 -0.05699096 197.23855071 -0.05689192 200.99145184 -0.05678936 C201.73683221 -0.05676942 202.48221257 -0.05674947 203.25018022 -0.05672892 C204.7575219 -0.05668848 206.26486358 -0.05664669 207.77220526 -0.05660353 C231.22862666 -0.05599065 254.68503361 -0.06349852 278.14145088 -0.07717609 C304.47593597 -0.09252545 330.81041155 -0.10114301 357.14490139 -0.10021287 C359.95118658 -0.10013824 362.75747176 -0.10008953 365.56375694 -0.10005856 C366.60027576 -0.10004107 366.60027576 -0.10004107 367.65773436 -0.10002324 C378.79438112 -0.09999242 389.93101537 -0.10638757 401.06765841 -0.11499082 C412.25388025 -0.12345384 423.44008392 -0.1242958 434.62630878 -0.1178815 C440.69048274 -0.11460373 446.7546112 -0.11460464 452.8187809 -0.12323475 C458.36403905 -0.13104549 463.90921522 -0.12972439 469.45447125 -0.12095062 C471.46658274 -0.11940357 473.47870018 -0.12127657 475.49080466 -0.12681069 C478.21433819 -0.13380871 480.93757914 -0.12862633 483.66110229 -0.12025452 C484.45219527 -0.1252227 485.24328824 -0.13019088 486.05835372 -0.13530961 C492.91446671 -0.09039405 492.91446671 -0.09039405 495.95639229 2.12863445 C498.38783735 5.77580204 498.20868275 7.48073031 498.21366119 11.82725716 C498.21716727 12.51500002 498.22067334 13.20274288 498.22428566 13.91132644 C498.23364424 16.23290071 498.22866499 18.55422657 498.22381783 20.87581158 C498.22755184 22.55022101 498.23215236 24.2246287 498.23754847 25.89903361 C498.24982453 30.51359193 498.24951261 35.12807801 498.24715972 39.74264896 C498.24675272 44.71410078 498.25777947 49.68552908 498.26727486 54.65697002 C498.28391064 64.40160407 498.28938555 74.14621392 498.29049961 83.89086097 C498.29144879 91.80837978 498.29555254 99.72589059 498.30190086 107.64340687 C498.31951967 130.07246036 498.32873864 152.50149469 498.32723992 174.93055516 C498.32712005 176.74551481 498.32712005 176.74551481 498.32699776 178.59714031 C498.326916 179.80858416 498.32683423 181.02002801 498.32675 182.26818229 C498.32593673 201.9106296 498.34508292 221.5530003 498.37327449 241.19542544 C498.40196797 261.34592634 498.41581676 281.49638982 498.41408694 301.64691168 C498.41342185 312.96726246 498.41896606 324.28753291 498.44044304 335.60786533 C498.4586083 345.24464717 498.46304057 354.88131227 498.44942419 364.51810377 C498.44287115 369.43807429 498.44286112 374.35782053 498.46013069 379.27777004 C498.47576369 383.77760945 498.47309877 388.27704493 498.45556243 392.77687389 C498.45247084 394.40874406 498.45620531 396.04064365 498.46728258 397.67247915 C498.48130315 399.88353872 498.47089908 402.09316156 498.45417023 404.30417061 C498.45482233 406.14945041 498.45482233 406.14945041 498.45548761 408.03200859 C497.86089392 411.72115194 496.85963725 412.86030749 493.95639229 415.12863445 C490.79132046 416.71117037 487.38811027 416.26624493 483.91278458 416.25726891 C482.64484036 416.25989846 482.64484036 416.25989846 481.35128111 416.26258114 C478.48779351 416.26727351 475.62435597 416.26476737 472.76086617 416.26234722 C470.69959022 416.26421357 468.63831462 416.26651356 466.5770396 416.26921254 C460.88848983 416.27535878 455.1999547 416.27519365 449.51140237 416.27401817 C443.38587544 416.27381487 437.26035329 416.2793261 431.13482857 416.28407574 C419.12475167 416.29239829 407.11468102 416.29514423 395.10460199 416.29568812 C385.34686345 416.29614712 375.5891265 416.29820264 365.83138847 416.30138874 C363.025732 416.30228624 360.22007553 416.30317606 357.41441905 416.30406362 C356.71698434 416.30428467 356.01954963 416.30450571 355.30098054 416.30473346 C335.67520854 416.31089031 316.0494371 416.31483376 296.42366409 416.31439018 C295.68326687 416.3143746 294.94286965 416.31435903 294.18003614 416.31434297 C290.427135 416.31425986 286.67423387 416.31416082 282.92133273 416.31405827 C282.17595237 416.31403832 281.430572 416.31401838 280.66260436 416.31399783 C279.15526268 416.31395739 277.647921 416.31391559 276.14057932 416.31387244 C252.68415792 416.31325956 229.22775096 416.32076742 205.77133369 416.334445 C179.43684861 416.34979435 153.10237302 416.35841191 126.76788318 416.35748178 C123.961598 416.35740714 121.15531282 416.35735844 118.34902763 416.35732746 C117.31250881 416.35730998 117.31250881 416.35730998 116.25505022 416.35729215 C105.11840346 416.35726133 93.9817692 416.36365647 82.84512617 416.37225973 C71.65890433 416.38072274 60.47270066 416.3815647 49.28647579 416.3751504 C43.22230184 416.37187263 37.15817338 416.37187354 31.09400368 416.38050365 C25.54874552 416.3883144 20.00356935 416.3869933 14.45831333 416.37821952 C12.44620184 416.37667248 10.43408439 416.37854547 8.42197992 416.3840796 C5.69844639 416.39107761 2.97520544 416.38589524 0.25168228 416.37752342 C-0.53941069 416.3824916 -1.33050366 416.38745978 -2.14556915 416.39257851 C-9.00168214 416.34766296 -9.00168214 416.34766296 -12.04360771 414.12863445 C-14.47505277 410.48146686 -14.29589818 408.77653859 -14.30087662 404.43001175 C-14.30438269 403.74226889 -14.30788877 403.05452602 -14.31150109 402.34594247 C-14.32085967 400.0243682 -14.31588041 397.70304233 -14.31103325 395.38145733 C-14.31476726 393.70704789 -14.31936778 392.0326402 -14.32476389 390.3582353 C-14.33703996 385.74367697 -14.33672803 381.12919089 -14.33437514 376.51461995 C-14.33396814 371.54316812 -14.34499489 366.57173983 -14.35449028 361.60029888 C-14.37112607 351.85566484 -14.37660097 342.11105499 -14.37771504 332.36640794 C-14.37866421 324.44888912 -14.38276797 316.53137832 -14.38911629 308.61386204 C-14.4067351 286.18480854 -14.41595406 263.75577421 -14.41445534 241.32671375 C-14.41437543 240.11674065 -14.41429551 238.90676755 -14.41421318 237.66012859 C-14.41413142 236.44868474 -14.41404966 235.23724089 -14.41396542 233.98908662 C-14.41315215 214.34663931 -14.43229835 194.70426861 -14.46048991 175.06184346 C-14.48918339 154.91134257 -14.50303219 134.76087908 -14.50130236 114.61035722 C-14.50063727 103.29000645 -14.50618148 91.969736 -14.52765846 80.64940357 C-14.54582373 71.01262173 -14.55025599 61.37595664 -14.53663962 51.73916513 C-14.53008658 46.81919462 -14.53007654 41.89944837 -14.54734612 36.97949886 C-14.56297912 32.47965946 -14.56031419 27.98022398 -14.54277785 23.48039501 C-14.53968627 21.84852485 -14.54342073 20.21662526 -14.554498 18.58478976 C-14.56851858 16.37373018 -14.5581145 14.16410734 -14.54138565 11.9530983 C-14.54182039 10.72291176 -14.54225512 9.49272523 -14.54270303 8.22526032 C-13.94810935 4.53611697 -12.94685267 3.39696141 -10.04360771 1.12863445 C-6.87853588 -0.45390146 -3.47532569 -0.00897603 0 0 Z " fill="#FDE2AE" transform="translate(14.043607711791992,47.871365547180176)"/>
<path d="M0 0 C1.26794422 -0.00262956 1.26794422 -0.00262956 2.56150347 -0.00531223 C5.42499107 -0.01000461 8.2884286 -0.00749847 11.15191841 -0.00507832 C13.21319436 -0.00694466 15.27446995 -0.00924465 17.33574498 -0.01194364 C23.02429474 -0.01808987 28.71282988 -0.01792474 34.40138221 -0.01674926 C40.52690914 -0.01654597 46.65243128 -0.0220572 52.77795601 -0.02680683 C64.78803291 -0.03512939 76.79810356 -0.03787532 88.80818258 -0.03841921 C98.56592113 -0.03887821 108.32365808 -0.04093374 118.0813961 -0.04411983 C120.88705257 -0.04501734 123.69270905 -0.04590715 126.49836552 -0.04679471 C127.19580023 -0.04701576 127.89323494 -0.04723681 128.61180404 -0.04746456 C148.23757603 -0.0536214 167.86334748 -0.05756485 187.48912048 -0.05712128 C188.22951771 -0.0571057 188.96991493 -0.05709012 189.73274843 -0.05707407 C193.48564957 -0.05699096 197.23855071 -0.05689192 200.99145184 -0.05678936 C201.73683221 -0.05676942 202.48221257 -0.05674947 203.25018022 -0.05672892 C204.7575219 -0.05668848 206.26486358 -0.05664669 207.77220526 -0.05660353 C231.22862666 -0.05599065 254.68503361 -0.06349852 278.14145088 -0.07717609 C304.47593597 -0.09252545 330.81041155 -0.10114301 357.14490139 -0.10021287 C359.95118658 -0.10013824 362.75747176 -0.10008953 365.56375694 -0.10005856 C366.60027576 -0.10004107 366.60027576 -0.10004107 367.65773436 -0.10002324 C378.79438112 -0.09999242 389.93101537 -0.10638757 401.06765841 -0.11499082 C412.25388025 -0.12345384 423.44008392 -0.1242958 434.62630878 -0.1178815 C440.69048274 -0.11460373 446.7546112 -0.11460464 452.8187809 -0.12323475 C458.36403905 -0.13104549 463.90921522 -0.12972439 469.45447125 -0.12095062 C471.46658274 -0.11940357 473.47870018 -0.12127657 475.49080466 -0.12681069 C478.21433819 -0.13380871 480.93757914 -0.12862633 483.66110229 -0.12025452 C484.45219527 -0.1252227 485.24328824 -0.13019088 486.05835372 -0.13530961 C492.91446671 -0.09039405 492.91446671 -0.09039405 495.95639229 2.12863445 C498.38783735 5.77580204 498.20868275 7.48073031 498.21366119 11.82725716 C498.21716727 12.51500002 498.22067334 13.20274288 498.22428566 13.91132644 C498.23364424 16.23290071 498.22866499 18.55422657 498.22381783 20.87581158 C498.22755184 22.55022101 498.23215236 24.2246287 498.23754847 25.89903361 C498.24982453 30.51359193 498.24951261 35.12807801 498.24715972 39.74264896 C498.24675272 44.71410078 498.25777947 49.68552908 498.26727486 54.65697002 C498.28391064 64.40160407 498.28938555 74.14621392 498.29049961 83.89086097 C498.29144879 91.80837978 498.29555254 99.72589059 498.30190086 107.64340687 C498.31951967 130.07246036 498.32873864 152.50149469 498.32723992 174.93055516 C498.32712005 176.74551481 498.32712005 176.74551481 498.32699776 178.59714031 C498.326916 179.80858416 498.32683423 181.02002801 498.32675 182.26818229 C498.32593673 201.9106296 498.34508292 221.5530003 498.37327449 241.19542544 C498.40196797 261.34592634 498.41581676 281.49638982 498.41408694 301.64691168 C498.41342185 312.96726246 498.41896606 324.28753291 498.44044304 335.60786533 C498.4586083 345.24464717 498.46304057 354.88131227 498.44942419 364.51810377 C498.44287115 369.43807429 498.44286112 374.35782053 498.46013069 379.27777004 C498.47576369 383.77760945 498.47309877 388.27704493 498.45556243 392.77687389 C498.45247084 394.40874406 498.45620531 396.04064365 498.46728258 397.67247915 C498.48130315 399.88353872 498.47089908 402.09316156 498.45417023 404.30417061 C498.45482233 406.14945041 498.45482233 406.14945041 498.45548761 408.03200859 C497.86089392 411.72115194 496.85963725 412.86030749 493.95639229 415.12863445 C490.79132046 416.71117037 487.38811027 416.26624493 483.91278458 416.25726891 C482.64484036 416.25989846 482.64484036 416.25989846 481.35128111 416.26258114 C478.48779351 416.26727351 475.62435597 416.26476737 472.76086617 416.26234722 C470.69959022 416.26421357 468.63831462 416.26651356 466.5770396 416.26921254 C460.88848983 416.27535878 455.1999547 416.27519365 449.51140237 416.27401817 C443.38587544 416.27381487 437.26035329 416.2793261 431.13482857 416.28407574 C419.12475167 416.29239829 407.11468102 416.29514423 395.10460199 416.29568812 C385.34686345 416.29614712 375.5891265 416.29820264 365.83138847 416.30138874 C363.025732 416.30228624 360.22007553 416.30317606 357.41441905 416.30406362 C356.71698434 416.30428467 356.01954963 416.30450571 355.30098054 416.30473346 C335.67520854 416.31089031 316.0494371 416.31483376 296.42366409 416.31439018 C295.68326687 416.3143746 294.94286965 416.31435903 294.18003614 416.31434297 C290.427135 416.31425986 286.67423387 416.31416082 282.92133273 416.31405827 C282.17595237 416.31403832 281.430572 416.31401838 280.66260436 416.31399783 C279.15526268 416.31395739 277.647921 416.31391559 276.14057932 416.31387244 C252.68415792 416.31325956 229.22775096 416.32076742 205.77133369 416.334445 C179.43684861 416.34979435 153.10237302 416.35841191 126.76788318 416.35748178 C123.961598 416.35740714 121.15531282 416.35735844 118.34902763 416.35732746 C117.31250881 416.35730998 117.31250881 416.35730998 116.25505022 416.35729215 C105.11840346 416.35726133 93.9817692 416.36365647 82.84512617 416.37225973 C71.65890433 416.38072274 60.47270066 416.3815647 49.28647579 416.3751504 C43.22230184 416.37187263 37.15817338 416.37187354 31.09400368 416.38050365 C25.54874552 416.3883144 20.00356935 416.3869933 14.45831333 416.37821952 C12.44620184 416.37667248 10.43408439 416.37854547 8.42197992 416.3840796 C5.69844639 416.39107761 2.97520544 416.38589524 0.25168228 416.37752342 C-0.53941069 416.3824916 -1.33050366 416.38745978 -2.14556915 416.39257851 C-9.00168214 416.34766296 -9.00168214 416.34766296 -12.04360771 414.12863445 C-14.47505277 410.48146686 -14.29589818 408.77653859 -14.30087662 404.43001175 C-14.30438269 403.74226889 -14.30788877 403.05452602 -14.31150109 402.34594247 C-14.32085967 400.0243682 -14.31588041 397.70304233 -14.31103325 395.38145733 C-14.31476726 393.70704789 -14.31936778 392.0326402 -14.32476389 390.3582353 C-14.33703996 385.74367697 -14.33672803 381.12919089 -14.33437514 376.51461995 C-14.33396814 371.54316812 -14.34499489 366.57173983 -14.35449028 361.60029888 C-14.37112607 351.85566484 -14.37660097 342.11105499 -14.37771504 332.36640794 C-14.37866421 324.44888912 -14.38276797 316.53137832 -14.38911629 308.61386204 C-14.4067351 286.18480854 -14.41595406 263.75577421 -14.41445534 241.32671375 C-14.41437543 240.11674065 -14.41429551 238.90676755 -14.41421318 237.66012859 C-14.41413142 236.44868474 -14.41404966 235.23724089 -14.41396542 233.98908662 C-14.41315215 214.34663931 -14.43229835 194.70426861 -14.46048991 175.06184346 C-14.48918339 154.91134257 -14.50303219 134.76087908 -14.50130236 114.61035722 C-14.50063727 103.29000645 -14.50618148 91.969736 -14.52765846 80.64940357 C-14.54582373 71.01262173 -14.55025599 61.37595664 -14.53663962 51.73916513 C-14.53008658 46.81919462 -14.53007654 41.89944837 -14.54734612 36.97949886 C-14.56297912 32.47965946 -14.56031419 27.98022398 -14.54277785 23.48039501 C-14.53968627 21.84852485 -14.54342073 20.21662526 -14.554498 18.58478976 C-14.56851858 16.37373018 -14.5581145 14.16410734 -14.54138565 11.9530983 C-14.54182039 10.72291176 -14.54225512 9.49272523 -14.54270303 8.22526032 C-13.94810935 4.53611697 -12.94685267 3.39696141 -10.04360771 1.12863445 C-6.87853588 -0.45390146 -3.47532569 -0.00897603 0 0 Z M2.95639229 90.12863445 C2.95639229 191.76863445 2.95639229 293.40863445 2.95639229 398.12863445 C160.69639229 398.12863445 318.43639229 398.12863445 480.95639229 398.12863445 C480.95639229 296.48863445 480.95639229 194.84863445 480.95639229 90.12863445 C323.21639229 90.12863445 165.47639229 90.12863445 2.95639229 90.12863445 Z " fill="#333333" transform="translate(14.043607711791992,47.871365547180176)"/>
<path d="M0 0 C157.74 0 315.48 0 478 0 C478 18.15 478 36.3 478 55 C320.26 55 162.52 55 0 55 C0 36.85 0 18.7 0 0 Z " fill="#FCA521" transform="translate(17,66)"/>
<path d="M0 0 C3.64688334 3.0865196 7.05575386 6.3808672 10.43554688 9.75585938 C11.17804688 10.48675781 11.92054688 11.21765625 12.68554688 11.97070312 C28.45825515 28.51356318 33.93129791 50.37546382 33.65039062 72.60351562 C32.93295189 96.77808178 21.31672072 117.70870703 4.12304688 134.06835938 C-15.13232699 150.36665796 -38.95330741 155.55847594 -63.56445312 153.75585938 C-79.53063371 151.94311921 -93.98806555 144.52964373 -106.56445312 134.75585938 C-107.1496875 134.33433594 -107.73492187 133.9128125 -108.33789062 133.47851562 C-125.23210359 120.43110702 -133.75097507 99.65561008 -137.14648438 79.25976562 C-139.72130619 57.67457716 -134.4545596 35.44854416 -121.42773438 17.87304688 C-105.91851391 -1.45423296 -86.25447211 -13.51152101 -61.52929688 -16.82226562 C-39.9664969 -19.11663252 -17.23383235 -13.70530737 0 0 Z " fill="#343434" transform="translate(175.564453125,275.244140625)"/>
<path d="M0 0 C0.98444595 -0.00930542 1.96889191 -0.01861084 2.98316956 -0.02819824 C4.55372353 -0.00360535 4.55372353 -0.00360535 6.15600586 0.02148438 C7.79018715 0.02142395 7.79018715 0.02142395 9.4573822 0.0213623 C11.75452461 0.02671117 14.05166693 0.04426652 16.34863281 0.07324219 C19.86246695 0.11513444 23.37438567 0.11430492 26.88842773 0.10742188 C29.12346708 0.11791356 31.35849656 0.13085154 33.59350586 0.14648438 C34.64256607 0.14668579 35.69162628 0.14688721 36.7724762 0.14709473 C45.95694986 0.29602271 45.95694986 0.29602271 49.80834961 3.61523438 C52.00128629 6.90463939 52.06045877 7.87066739 52.06904602 11.68783569 C52.07613083 12.73650314 52.08321564 13.78517059 52.09051514 14.86561584 C52.08803772 16.01581711 52.0855603 17.16601837 52.08300781 18.35107422 C52.08811874 19.56267715 52.09322968 20.77428009 52.09849548 22.02259827 C52.11002667 25.34711261 52.11246292 28.67137789 52.10993218 31.99589491 C52.10886294 34.77169512 52.11374475 37.5474723 52.1185376 40.32326758 C52.12963691 46.8730813 52.13006816 53.42283767 52.12402344 59.97265625 C52.1179855 66.7272314 52.13028897 73.48159815 52.15159351 80.23613775 C52.16921557 86.03666651 52.17520983 91.83712897 52.17195576 97.63768351 C52.17014334 101.10144313 52.17277459 104.56505416 52.1866703 108.02878952 C52.20159131 111.89281117 52.19227316 115.75656804 52.18066406 119.62060547 C52.1883078 120.76675827 52.19595154 121.91291107 52.2038269 123.09379578 C52.19681259 124.14810287 52.18979828 125.20240997 52.18257141 126.28866577 C52.18273915 127.20195333 52.18290689 128.1152409 52.18307972 129.05620384 C51.72634797 132.17522328 50.63735659 134.06908907 48.80834961 136.61523438 C45.57434902 138.23223467 42.03091245 137.76698633 38.47721863 137.76913452 C37.6051574 137.77351678 36.73309618 137.77789903 35.83460885 137.78241408 C32.89510821 137.79583205 29.95563756 137.80198763 27.01611328 137.80810547 C24.9155819 137.816004 22.81505189 137.82427279 20.71452332 137.83288574 C13.80180156 137.85913204 6.88907367 137.87441478 -0.02368164 137.88867188 C-2.40034171 137.89403025 -4.77700174 137.89940776 -7.15366173 137.90480423 C-17.03685512 137.9264357 -26.92004686 137.94517402 -36.80325794 137.95642662 C-50.98364348 137.9726762 -65.16375545 138.00587563 -79.34403783 138.06282747 C-89.30585738 138.1014778 -99.2676036 138.12105343 -109.22949618 138.12634718 C-115.18385601 138.13000702 -121.13792424 138.14209568 -127.09220314 138.17444992 C-132.69253413 138.20444446 -138.29239575 138.21087306 -143.89278984 138.19906616 C-145.94994477 138.19884471 -148.00712095 138.20720835 -150.06420135 138.22472 C-152.86989372 138.24730725 -155.67386899 138.23916542 -158.47956848 138.22323608 C-159.29630297 138.23711817 -160.11303746 138.25100026 -160.95452148 138.26530302 C-165.00839265 138.20847581 -166.95048848 137.80160976 -170.19647312 135.29303932 C-172.7216337 131.90392317 -172.89882422 129.2237634 -172.83862305 125.15039062 C-172.84738464 124.41642059 -172.85614624 123.68245056 -172.86517334 122.92623901 C-172.88711046 120.50946248 -172.87263685 118.09452822 -172.85571289 115.67773438 C-172.85908271 113.99291636 -172.86393672 112.30810072 -172.87020874 110.62329102 C-172.87757229 107.09595546 -172.86689185 103.56925391 -172.84350586 100.04199219 C-172.81501766 95.52559444 -172.83142451 91.01068226 -172.86136818 86.49433899 C-172.87945558 83.01636608 -172.87367667 79.5387441 -172.86072922 76.0607605 C-172.85739916 74.39582136 -172.86146826 72.73085013 -172.87312698 71.06594849 C-172.88586048 68.73646954 -172.86642854 66.40937954 -172.83862305 64.08007812 C-172.85380478 63.05284134 -172.85380478 63.05284134 -172.86929321 62.00485229 C-172.78808109 58.32344895 -172.22414527 56.65833984 -169.98580933 53.68911743 C-166.91129975 51.40715228 -165.60550693 50.98463403 -161.83813477 50.96826172 C-160.27125916 50.94462051 -160.27125916 50.94462051 -158.67272949 50.92050171 C-156.99600159 50.93568344 -156.99600159 50.93568344 -155.28540039 50.95117188 C-154.12794312 50.94638824 -152.97048584 50.94160461 -151.7779541 50.93667603 C-149.33364501 50.93327738 -146.88929044 50.94247713 -144.44506836 50.96337891 C-140.70461631 50.9901416 -136.9671654 50.96362633 -133.22680664 50.93164062 C-130.85049794 50.93494472 -128.4741911 50.94135095 -126.09790039 50.95117188 C-124.42117249 50.93599014 -124.42117249 50.93599014 -122.71057129 50.92050171 C-121.66598755 50.93626251 -120.62140381 50.95202332 -119.54516602 50.96826172 C-118.62981079 50.97223969 -117.71445557 50.97621765 -116.7713623 50.98031616 C-113.02082314 51.90339816 -111.52230572 53.58423681 -109.19165039 56.61523438 C-108.59037781 59.64619446 -108.59037781 59.64619446 -108.62402344 63.05786133 C-108.62440109 64.3388118 -108.62477875 65.61976227 -108.62516785 66.93952942 C-108.6506973 68.32753481 -108.67677721 69.71553018 -108.70336914 71.10351562 C-108.71270158 72.53125264 -108.71981566 73.95900574 -108.72480774 75.38676453 C-108.74384438 79.13380605 -108.79291406 82.8798693 -108.84832764 86.62652588 C-108.89959354 90.45400765 -108.92233729 94.28164842 -108.94750977 98.109375 C-109.00103844 105.6118245 -109.08894433 113.11326741 -109.19165039 120.61523438 C-103.58165039 120.61523438 -97.97165039 120.61523438 -92.19165039 120.61523438 C-92.20736084 117.94534424 -92.22307129 115.2754541 -92.23925781 112.5246582 C-92.28896516 103.70374789 -92.32210399 94.88283139 -92.34708691 86.06181812 C-92.36274335 80.71358139 -92.38398143 75.36548814 -92.41796875 70.01733398 C-92.45056266 64.85614804 -92.46850356 59.69510012 -92.47628212 54.5338192 C-92.48182555 52.56463129 -92.49265047 50.59545095 -92.50884056 48.62632179 C-92.53061514 45.86830946 -92.53361729 43.11086765 -92.53222656 40.3527832 C-92.54301239 39.53854385 -92.55379822 38.7243045 -92.56491089 37.88539124 C-92.5398285 33.2889747 -92.08585956 30.25422029 -89.19165039 26.61523438 C-86.6694757 25.35414703 -84.89424548 25.46771081 -82.07104492 25.43823242 C-81.00298615 25.42539719 -79.93492737 25.41256195 -78.83450317 25.39933777 C-77.09703323 25.38825737 -77.09703323 25.38825737 -75.32446289 25.37695312 C-73.54505814 25.3648455 -73.54505814 25.3648455 -71.72970581 25.35249329 C-69.21622178 25.3386448 -66.70271888 25.32792608 -64.18920898 25.32006836 C-60.33940189 25.30283621 -56.490449 25.25895301 -52.64086914 25.21484375 C-50.20207339 25.2047189 -47.76327032 25.19620215 -45.32446289 25.18945312 C-44.17019806 25.17194504 -43.01593323 25.15443695 -41.82669067 25.13639832 C-40.21514603 25.14078667 -40.21514603 25.14078667 -38.57104492 25.14526367 C-37.62665558 25.13939743 -36.68226624 25.13353119 -35.70925903 25.12748718 C-33.19165039 25.61523438 -33.19165039 25.61523438 -30.88381958 27.09413147 C-28.43714718 30.73934198 -28.66468397 34.18436703 -28.73754883 38.42285156 C-28.73696472 39.31101059 -28.73638062 40.19916962 -28.73577881 41.11424255 C-28.73856353 44.04726365 -28.76967389 46.97926602 -28.80102539 49.91210938 C-28.8084864 51.94662928 -28.81417999 53.98115637 -28.81817627 56.01568604 C-28.83344358 61.36867133 -28.87273511 66.72122199 -28.91699219 72.07403564 C-28.95792107 77.53692749 -28.97618221 82.99988962 -28.99633789 88.46289062 C-29.0392282 99.18056015 -29.10958729 109.89779311 -29.19165039 120.61523438 C-23.25165039 120.61523438 -17.31165039 120.61523438 -11.19165039 120.61523438 C-11.21163589 118.47079582 -11.21163589 118.47079582 -11.23202515 116.28303528 C-11.35358083 102.81943755 -11.44392364 89.35589682 -11.50252342 75.89188099 C-11.53345265 68.96960718 -11.57561405 62.04774318 -11.64428711 55.12573242 C-11.7105122 48.44728133 -11.7453429 41.76934421 -11.76091385 35.09055138 C-11.77201213 32.54077128 -11.79368434 29.99101486 -11.82603073 27.44141579 C-11.86950061 23.87359614 -11.87558802 20.3075432 -11.87280273 16.73950195 C-11.89437439 15.6821434 -11.91594604 14.62478485 -11.93817139 13.53538513 C-11.87975186 6.63310726 -11.87975186 6.63310726 -9.99262714 3.84158134 C-6.91283746 1.03733605 -4.09344244 -0.00978059 0 0 Z " fill="#333333" transform="translate(422.191650390625,291.384765625)"/>
<path d="M0 0 C1.18263428 -0.0087616 2.36526855 -0.01752319 3.58374023 -0.02655029 C6.81956093 -0.04476528 10.05435616 -0.04052673 13.29016113 -0.02465487 C16.68044141 -0.01197275 20.07065446 -0.02374236 23.4609375 -0.03158569 C29.15377047 -0.04067563 34.84627884 -0.02871197 40.5390625 -0.00488281 C47.115499 0.02232775 53.69116041 0.01351308 60.26757812 -0.01401484 C65.91958234 -0.03672401 71.57135357 -0.03989734 77.22338867 -0.02682149 C80.59664612 -0.0190367 83.96953955 -0.01795797 87.34277344 -0.03450394 C91.10405025 -0.04718876 94.86383449 -0.02786476 98.625 0 C99.7399585 -0.01012115 100.85491699 -0.02024231 102.00366211 -0.03067017 C109.50623183 0.07241138 109.50623183 0.07241138 113.5045166 2.92166138 C115.27593903 5.59186151 115.93691157 6.76230416 115.92773438 9.89892578 C115.9416925 11.10542786 115.9416925 11.10542786 115.95593262 12.33630371 C115.93133972 13.61930359 115.93133972 13.61930359 115.90625 14.92822266 C115.90629028 15.81932739 115.90633057 16.71043213 115.90637207 17.62854004 C115.90102321 19.50796583 115.8834675 21.38739153 115.85449219 23.26660156 C115.81263694 26.13757947 115.81342587 29.00620977 115.8203125 31.87744141 C115.80981917 33.70688473 115.7968803 35.53631601 115.78125 37.36572266 C115.78104858 38.22105591 115.78084717 39.07638916 115.78063965 39.9576416 C115.68778951 44.65115716 115.37309513 47.84464211 112.3125 51.64697266 C109.84927915 52.87858308 108.22279603 52.78095178 105.46731567 52.79414368 C104.44382019 52.80129898 103.42032471 52.80845428 102.36581421 52.81582642 C101.23849884 52.81851532 100.11118347 52.82120422 98.94970703 52.82397461 C97.1740033 52.83383141 97.1740033 52.83383141 95.36242676 52.84388733 C92.11031289 52.8602411 88.85823266 52.87184866 85.60608912 52.88009286 C83.57482174 52.88524247 81.54355892 52.89131818 79.51229477 52.89760399 C73.15845907 52.91665485 66.80463499 52.93088693 60.45077622 52.93921596 C53.11325457 52.948993 45.77603423 52.97532472 38.43861878 53.01571685 C32.76892117 53.04585875 27.09931003 53.06068292 21.42953384 53.06399697 C18.04228406 53.06634944 14.65535621 53.0753347 11.26819229 53.10045815 C7.48990853 53.12468841 3.71241896 53.12391381 -0.06591797 53.11694336 C-1.18918488 53.12975342 -2.31245178 53.14256348 -3.46975708 53.15576172 C-4.49889221 53.1488179 -5.52802734 53.14187408 -6.58834839 53.13471985 C-7.48173353 53.1371082 -8.37511868 53.13949656 -9.2955761 53.14195728 C-12.46106704 52.48689073 -13.64938515 51.09499213 -15.6875 48.64697266 C-18.29901188 43.42394889 -17.00120173 35.07061602 -17.03759766 29.25366211 C-17.05415444 27.3127849 -17.08144088 25.3719686 -17.11962891 23.43139648 C-17.1744334 20.63184 -17.19627664 17.83371228 -17.2109375 15.03369141 C-17.23360687 14.16894699 -17.25627625 13.30420258 -17.27963257 12.41325378 C-17.27678253 11.59923599 -17.2739325 10.7852182 -17.27099609 9.9465332 C-17.27908295 9.23530807 -17.2871698 8.52408295 -17.29550171 7.79130554 C-14.85814504 -0.80489406 -7.35464593 -0.06676258 0 0 Z " fill="#333333" transform="translate(206.6875,188.35302734375)"/>
<path d="M0 0 C1.18263428 -0.0087616 2.36526855 -0.01752319 3.58374023 -0.02655029 C6.81956093 -0.04476528 10.05435616 -0.04052673 13.29016113 -0.02465487 C16.68044141 -0.01197275 20.07065446 -0.02374236 23.4609375 -0.03158569 C29.15377047 -0.04067563 34.84627884 -0.02871197 40.5390625 -0.00488281 C47.115499 0.02232775 53.69116041 0.01351308 60.26757812 -0.01401484 C65.91958234 -0.03672401 71.57135357 -0.03989734 77.22338867 -0.02682149 C80.59664612 -0.0190367 83.96953955 -0.01795797 87.34277344 -0.03450394 C91.10405025 -0.04718876 94.86383449 -0.02786476 98.625 0 C99.7399585 -0.01012115 100.85491699 -0.02024231 102.00366211 -0.03067017 C109.50623183 0.07241138 109.50623183 0.07241138 113.5045166 2.92166138 C115.27593903 5.59186151 115.93691157 6.76230416 115.92773438 9.89892578 C115.9416925 11.10542786 115.9416925 11.10542786 115.95593262 12.33630371 C115.93133972 13.61930359 115.93133972 13.61930359 115.90625 14.92822266 C115.90629028 15.81932739 115.90633057 16.71043213 115.90637207 17.62854004 C115.90102321 19.50796583 115.8834675 21.38739153 115.85449219 23.26660156 C115.81263694 26.13757947 115.81342587 29.00620977 115.8203125 31.87744141 C115.80981917 33.70688473 115.7968803 35.53631601 115.78125 37.36572266 C115.78104858 38.22105591 115.78084717 39.07638916 115.78063965 39.9576416 C115.68778951 44.65115716 115.37309513 47.84464211 112.3125 51.64697266 C109.84927915 52.87858308 108.22279603 52.78095178 105.46731567 52.79414368 C104.44382019 52.80129898 103.42032471 52.80845428 102.36581421 52.81582642 C101.23849884 52.81851532 100.11118347 52.82120422 98.94970703 52.82397461 C97.1740033 52.83383141 97.1740033 52.83383141 95.36242676 52.84388733 C92.11031289 52.8602411 88.85823266 52.87184866 85.60608912 52.88009286 C83.57482174 52.88524247 81.54355892 52.89131818 79.51229477 52.89760399 C73.15845907 52.91665485 66.80463499 52.93088693 60.45077622 52.93921596 C53.11325457 52.948993 45.77603423 52.97532472 38.43861878 53.01571685 C32.76892117 53.04585875 27.09931003 53.06068292 21.42953384 53.06399697 C18.04228406 53.06634944 14.65535621 53.0753347 11.26819229 53.10045815 C7.48990853 53.12468841 3.71241896 53.12391381 -0.06591797 53.11694336 C-1.18918488 53.12975342 -2.31245178 53.14256348 -3.46975708 53.15576172 C-4.49889221 53.1488179 -5.52802734 53.14187408 -6.58834839 53.13471985 C-7.48173353 53.1371082 -8.37511868 53.13949656 -9.2955761 53.14195728 C-12.46106704 52.48689073 -13.64938515 51.09499213 -15.6875 48.64697266 C-18.29901188 43.42394889 -17.00120173 35.07061602 -17.03759766 29.25366211 C-17.05415444 27.3127849 -17.08144088 25.3719686 -17.11962891 23.43139648 C-17.1744334 20.63184 -17.19627664 17.83371228 -17.2109375 15.03369141 C-17.23360687 14.16894699 -17.25627625 13.30420258 -17.27963257 12.41325378 C-17.27678253 11.59923599 -17.2739325 10.7852182 -17.27099609 9.9465332 C-17.27908295 9.23530807 -17.2871698 8.52408295 -17.29550171 7.79130554 C-14.85814504 -0.80489406 -7.35464593 -0.06676258 0 0 Z " fill="#333333" transform="translate(54.6875,188.35302734375)"/>
<path d="M0 0 C1.18424057 -0.0071553 2.36848114 -0.01431061 3.58860779 -0.02168274 C6.82851116 -0.03567755 10.06737797 -0.02727901 13.30722356 -0.00759244 C16.70062898 0.00881625 20.09398308 -0.00002172 23.4874115 -0.00511169 C29.18444978 -0.00962961 34.8811594 0.00621949 40.578125 0.03417969 C47.16245264 0.06624602 53.74618811 0.06620919 60.33055788 0.04896492 C66.66898393 0.0330971 73.00719309 0.03983389 79.34560966 0.05690193 C82.04134337 0.06377029 84.73690311 0.06274239 87.43263435 0.05535698 C91.19635085 0.04991948 94.95905502 0.07023478 98.72265625 0.09765625 C100.40048691 0.08786743 100.40048691 0.08786743 102.11221313 0.07788086 C103.13701279 0.09060532 104.16181244 0.10332977 105.21766663 0.11643982 C106.10715531 0.11924674 106.996644 0.12205366 107.91308689 0.12494564 C111.06578168 0.79443667 112.26222959 2.19127244 114.29663086 4.63110352 C115.97133069 7.98050317 115.45978907 11.75239499 115.46459961 15.43579102 C115.46792801 16.31131622 115.47125641 17.18684143 115.47468567 18.08889771 C115.47975356 19.94329299 115.48209404 21.79769741 115.48193359 23.65209961 C115.48411669 26.48770221 115.50226439 29.32291372 115.52124023 32.15844727 C115.52417486 33.95922718 115.52615919 35.76000895 115.52709961 37.56079102 C115.53428513 38.40882294 115.54147064 39.25685486 115.5488739 40.13058472 C115.54579727 40.92465729 115.54272064 41.71872986 115.53955078 42.53686523 C115.5409758 43.23254608 115.54240082 43.92822693 115.54386902 44.64498901 C115.24556426 47.04133194 114.57831555 48.58762144 113.29663086 50.63110352 C110.03375158 52.80635637 109.10742132 52.88433525 105.33119202 52.89852905 C104.30632187 52.90705902 103.28145172 52.91558899 102.2255249 52.92437744 C101.10180481 52.92347107 99.97808472 52.9225647 98.8203125 52.92163086 C97.04438972 52.9317067 97.04438972 52.9317067 95.23258972 52.94198608 C91.9846286 52.95774409 88.73682084 52.96434196 85.48882604 52.96561766 C82.77754809 52.96751679 80.06629469 52.9748744 77.35502619 52.98196185 C70.95867668 52.99824794 64.56238348 53.00313056 58.16601562 53.00170898 C51.56700758 53.00050711 44.96832636 53.02161717 38.36940104 53.05319631 C32.70391649 53.07934266 27.0385388 53.090077 21.37299436 53.08879817 C17.98913201 53.08828809 14.60556016 53.09399612 11.22175789 53.11515427 C7.44834155 53.13468563 3.67577289 53.12902613 -0.09765625 53.11694336 C-1.21935211 53.12818237 -2.34104797 53.13942139 -3.49673462 53.15100098 C-5.03826958 53.13841751 -5.03826958 53.13841751 -6.61094666 53.12557983 C-7.50303298 53.12666937 -8.3951193 53.1277589 -9.31423855 53.12888145 C-12.4759977 52.47012552 -13.66643802 51.07662011 -15.70336914 48.63110352 C-18.31488102 43.40807975 -17.01707087 35.05474688 -17.0534668 29.23779297 C-17.07002358 27.29691576 -17.09731002 25.35609946 -17.13549805 23.41552734 C-17.19030254 20.61597086 -17.21214578 17.81784314 -17.22680664 15.01782227 C-17.24947601 14.15307785 -17.27214539 13.28833344 -17.29550171 12.39738464 C-17.29265167 11.58336685 -17.28980164 10.76934906 -17.28686523 9.93066406 C-17.29495209 9.21943893 -17.30303894 8.50821381 -17.31137085 7.7754364 C-14.87108021 -0.8311109 -7.3602011 -0.07707538 0 0 Z " fill="#333333" transform="translate(358.703369140625,188.368896484375)"/>
<path d="M0 0 C1.04591728 -0.00384115 2.09183455 -0.00768229 3.16944629 -0.01163983 C4.9065186 -0.01034011 4.9065186 -0.01034011 6.67868328 -0.00901413 C7.90193001 -0.01198525 9.12517674 -0.01495637 10.38549155 -0.01801753 C13.79180739 -0.02521368 17.19807281 -0.02787808 20.60439265 -0.028615 C24.2738865 -0.03046251 27.94336935 -0.03800832 31.61285686 -0.04475021 C39.6417422 -0.05834663 47.67062255 -0.06436032 55.69951749 -0.06876087 C60.71045396 -0.07152114 65.72138849 -0.0757581 70.73232365 -0.08026505 C84.59931123 -0.09245952 98.46629727 -0.10275842 112.3332901 -0.10614014 C113.66522309 -0.10646949 113.66522309 -0.10646949 115.02406381 -0.10680549 C115.91417471 -0.10702377 116.80428561 -0.10724204 117.72136956 -0.10746694 C119.52514923 -0.10791041 121.32892889 -0.10835697 123.13270855 -0.10880661 C124.47482136 -0.10913875 124.47482136 -0.10913875 125.84404757 -0.10947761 C140.34498465 -0.11342637 154.84587149 -0.13088195 169.34678916 -0.15416613 C184.22575191 -0.17786498 199.10468943 -0.19034132 213.98367137 -0.19150805 C222.34126309 -0.19242565 230.69878938 -0.19819923 239.05636311 -0.21632767 C246.17263833 -0.2317089 253.28882791 -0.23686086 260.4051166 -0.22858956 C264.03711738 -0.22467598 267.66894558 -0.22564692 271.30092525 -0.23964691 C275.2359203 -0.25467643 279.17067089 -0.24654024 283.10568523 -0.23606491 C284.25704128 -0.24412132 285.40839732 -0.25217772 286.59464294 -0.26047826 C288.17525371 -0.25059349 288.17525371 -0.25059349 289.78779602 -0.24050903 C290.69614207 -0.24110612 291.60448811 -0.24170321 292.5403598 -0.24231839 C295.64977996 0.2148007 297.54353401 1.30892039 300.08265972 3.13142776 C301.67882715 6.32376262 301.59732086 9.66604273 301.08265972 13.13142776 C299.21250878 15.56262399 297.80127627 16.77211949 295.08265972 18.13142776 C293.44580038 18.22788278 291.80501667 18.26060421 290.16531944 18.26285553 C288.59644353 18.26861725 288.59644353 18.26861725 286.99587315 18.27449536 C285.25880084 18.27319564 285.25880084 18.27319564 283.48663616 18.27186966 C282.26338943 18.27484078 281.0401427 18.2778119 279.77982789 18.28087306 C276.37351206 18.28806921 272.96724663 18.29073361 269.5609268 18.29147053 C265.89143294 18.29331804 262.22195009 18.30086385 258.55246258 18.30760574 C250.52357724 18.32120216 242.49469689 18.32721585 234.46580195 18.3316164 C229.45486549 18.33437667 224.44393096 18.33861363 219.4329958 18.34312057 C205.56600821 18.35531505 191.69902218 18.36561395 177.83202934 18.36899567 C176.50009636 18.36932502 176.50009636 18.36932502 175.14125564 18.36966102 C174.25114474 18.3698793 173.36103384 18.37009757 172.44394988 18.37032247 C170.64017022 18.37076594 168.83639055 18.3712125 167.03261089 18.37166214 C165.69049808 18.37199428 165.69049808 18.37199428 164.32127187 18.37233314 C149.8203348 18.3762819 135.31944795 18.39373748 120.81853028 18.41702166 C105.93956754 18.44072051 91.06063001 18.45319685 76.18164808 18.45436358 C67.82405635 18.45528118 59.46653006 18.46105476 51.10895634 18.4791832 C43.99268111 18.49456443 36.87649153 18.49971639 29.76020285 18.49144509 C26.12820206 18.48753151 22.49637387 18.48850245 18.86439419 18.50250244 C14.92939914 18.51753196 10.99464855 18.50939577 7.05963421 18.49892044 C5.90827817 18.50697685 4.75692212 18.51503325 3.57067651 18.52333379 C2.51693599 18.51674394 1.46319547 18.5101541 0.37752342 18.50336456 C-0.98499565 18.5042602 -0.98499565 18.5042602 -2.37504035 18.50517392 C-5.48446051 18.04805483 -7.37821457 16.95393514 -9.91734028 15.13142776 C-11.51350771 11.93909291 -11.43200142 8.5968128 -10.91734028 5.13142776 C-7.65971692 0.8965174 -5.18048598 0.00711285 0 0 Z " fill="#3A3937" transform="translate(110.91734027862549,153.86857223510742)"/>
<path d="M0 0 C7.30335186 4.75722919 11.69288389 11.6659242 14 20 C15.07898117 31.29166336 13.98820791 40.4013882 6.75 49.3125 C0.62265361 55.82116194 -6.83728156 60.15306886 -15.87548828 60.48242188 C-25.83725379 60.56248965 -33.42716917 58.92435597 -41.1484375 52.1015625 C-48.86776879 43.86109492 -51.41004896 35.2627404 -51.2734375 24.12890625 C-50.51688193 15.4717489 -46.32705909 8.78119516 -40 3 C-27.4537282 -6.83592737 -14.02713014 -7.80658197 0 0 Z " fill="#FDE3AE" transform="translate(142,316)"/>
<path d="M0 0 C9.57 0 19.14 0 29 0 C29 33.99 29 67.98 29 103 C19.43 103 9.86 103 0 103 C0 69.01 0 35.02 0 0 Z " fill="#7CD43D" transform="translate(428,309)"/>
<path d="M0 0 C9.57 0 19.14 0 29 0 C29 25.74 29 51.48 29 78 C19.43 78 9.86 78 0 78 C0 52.26 0 26.52 0 0 Z " fill="#1A9FFC" transform="translate(347,334)"/>
<path d="M0 0 C5.94 0 11.88 0 18 0 C18.99 2.64 19.98 5.28 21 8 C26.47211618 20.96725712 34.65488691 31.56841574 47.8359375 37.21484375 C58.98226091 41.41339185 68.67444991 42.06574686 80.25 39.25 C80.91104736 39.09313721 81.57209473 38.93627441 82.25317383 38.7746582 C85.80158967 37.84834707 88.62881233 36.70222355 91.734375 34.734375 C95 33 95 33 97.109375 33.4375 C99.62270741 35.51463422 101.95016452 37.68671519 104.25 40 C105.14203125 40.886875 106.0340625 41.77375 106.953125 42.6875 C109 45 109 45 109 47 C100.27730282 52.38793289 92.06161963 56.5503347 82 59 C81.25105469 59.19207031 80.50210938 59.38414062 79.73046875 59.58203125 C68.71351033 61.26846122 56.42335227 61.03904901 46 57 C45.030625 56.6596875 44.06125 56.319375 43.0625 55.96875 C24.97544073 49.13996232 12.41273567 35.54487971 4.1875 18.375 C1.55053727 12.31172057 0 6.61934338 0 0 Z " fill="#7CD33D" transform="translate(56,352)"/>
<path d="M0 0 C18.14838274 2.21321741 32.9915145 10.2642275 44.90234375 24.20703125 C56.74960068 39.98131189 62.42525693 58.31896023 59.71582031 78.07177734 C57.77460078 88.90981939 54.02996682 102.22752488 45 109 C41.04 105.04 37.08 101.08 33 97 C34.02048198 94.44879505 35.05275239 91.89529449 36.2890625 89.44140625 C41.63291581 77.92555863 42.44971201 62.93635803 38.4375 50.8125 C37.34875185 48.35388567 37.34875185 48.35388567 36 46 C35.50242188 45.071875 35.00484375 44.14375 34.4921875 43.1875 C26.43183226 29.39117102 15.04159454 23.08271852 0 19 C0 12.73 0 6.46 0 0 Z " fill="#1A9FFC" transform="translate(132,276)"/>
<path d="M0 0 C32.34 0 64.68 0 98 0 C98 5.94 98 11.88 98 18 C65.66 18 33.32 18 0 18 C0 12.06 0 6.12 0 0 Z " fill="#CBCBCB" transform="translate(359,206)"/>
<path d="M0 0 C32.34 0 64.68 0 98 0 C98 5.94 98 11.88 98 18 C65.66 18 33.32 18 0 18 C0 12.06 0 6.12 0 0 Z " fill="#CBCBCB" transform="translate(207,206)"/>
<path d="M0 0 C32.34 0 64.68 0 98 0 C98 5.94 98 11.88 98 18 C65.66 18 33.32 18 0 18 C0 12.06 0 6.12 0 0 Z " fill="#CBCBCB" transform="translate(55,206)"/>
<path d="M0 0 C9.57 0 19.14 0 29 0 C29 17.16 29 34.32 29 52 C19.43 52 9.86 52 0 52 C0 34.84 0 17.68 0 0 Z " fill="#FE3131" transform="translate(267,360)"/>
<path d="M0 0 C0 6.27 0 12.54 0 19 C-1.77375 19.53625 -3.5475 20.0725 -5.375 20.625 C-18.29849577 24.93791191 -27.996575 32.27096299 -35 44 C-37.38862291 48.96430665 -38.91746561 53.58732807 -40 59 C-46.27 59 -52.54 59 -59 59 C-57.53596147 45.82365327 -53.2839519 35.29550755 -45 25 C-44.46761719 24.30519531 -43.93523437 23.61039062 -43.38671875 22.89453125 C-33.45224437 10.63648052 -16.11432737 0 0 0 Z " fill="#FC3131" transform="translate(115,276)"/>
<path d="M0 0 C2.17551984 -0.0043729 4.34900906 -0.04069876 6.52416992 -0.07861328 C7.91023071 -0.08448196 9.29630111 -0.08845101 10.68237305 -0.09033203 C12.57040649 -0.10265869 12.57040649 -0.10265869 14.49658203 -0.11523438 C18.31698608 0.45548885 19.45970893 1.32012456 21.7487793 4.37060547 C22.89573867 7.96441151 23.0651023 9.63806799 21.5612793 13.12060547 C19.6089302 15.54421125 18.61365927 16.26582981 15.7487793 17.37060547 C11.11453629 17.8277678 6.4657341 17.74091584 1.8112793 17.74560547 C0.53575195 17.77009766 -0.73977539 17.79458984 -2.05395508 17.81982422 C-3.28307617 17.82369141 -4.51219727 17.82755859 -5.77856445 17.83154297 C-7.46067017 17.84386963 -7.46067017 17.84386963 -9.17675781 17.85644531 C-12.94941709 17.26027347 -14.59244332 16.07368074 -17.2512207 13.37060547 C-18.18727283 9.87601085 -18.6254746 7.52455499 -17.5012207 4.05810547 C-13.37913392 -1.50671169 -6.20913179 -0.00140145 0 0 Z " fill="#353432" transform="translate(112.251220703125,84.62939453125)"/>
<path d="M0 0 C1.31484375 -0.00644531 2.6296875 -0.01289062 3.984375 -0.01953125 C5.0043457 -0.0038208 5.0043457 -0.0038208 6.04492188 0.01220703 C8.12034681 0.03900242 10.19036676 0.01243363 12.265625 -0.01953125 C14.23789063 -0.00986328 14.23789063 -0.00986328 16.25 0 C17.44882813 0.00563965 18.64765625 0.0112793 19.8828125 0.01708984 C24.03871685 0.84639305 25.53719356 2.36869025 28.125 5.6640625 C28.6875 9.2265625 28.6875 9.2265625 28.125 12.6640625 C26.25791495 15.02903689 24.80438569 16.32436965 22.125 17.6640625 C17.54798907 17.99075555 12.96221418 17.98870386 8.375 18.0390625 C6.46074219 18.09513672 6.46074219 18.09513672 4.5078125 18.15234375 C-6.03311366 18.25137124 -6.03311366 18.25137124 -9.72265625 15.359375 C-11.875 12.6640625 -11.875 12.6640625 -12.5625 9.1640625 C-11.16517918 2.05042924 -6.83616496 0.03215938 0 0 Z " fill="#343332" transform="translate(164.875,84.3359375)"/>
<path d="M0 0 C1.31484375 -0.00644531 2.6296875 -0.01289062 3.984375 -0.01953125 C5.0043457 -0.0038208 5.0043457 -0.0038208 6.04492188 0.01220703 C8.12034681 0.03900242 10.19036676 0.01243363 12.265625 -0.01953125 C14.23789062 -0.00986328 14.23789062 -0.00986328 16.25 0 C17.44882813 0.00563965 18.64765625 0.0112793 19.8828125 0.01708984 C24.03743277 0.84613681 25.530318 2.37694572 28.125 5.6640625 C28.8125 9.1640625 28.8125 9.1640625 28.125 12.6640625 C25.29170708 16.19415078 23.59189836 17.45690196 19.07202148 18.09521484 C15.36910252 18.22938044 11.70398844 18.19764765 8 18.1015625 C6.72511719 18.09576172 5.45023438 18.08996094 4.13671875 18.08398438 C-6.48534276 17.94407313 -6.48534276 17.94407313 -9.875 15.6640625 C-12.37531654 11.91358768 -12.41103554 10.10549984 -11.875 5.6640625 C-8.24281044 1.01475841 -5.83134428 0.0274324 0 0 Z " fill="#343432" transform="translate(47.875,84.3359375)"/>
</svg>
